<?xml version="1.0" encoding="utf-8"?>
<!-- Generator: Adobe Illustrator 19.2.0, SVG Export Plug-In . SVG Version: 6.00 Build 0)  -->
<!DOCTYPE svg PUBLIC "-//W3C//DTD SVG 1.1//EN" "http://www.w3.org/Graphics/SVG/1.1/DTD/svg11.dtd">
<svg version="1.1" id="Inhalt" xmlns="http://www.w3.org/2000/svg" xmlns:xlink="http://www.w3.org/1999/xlink" x="0px" y="0px"
	 viewBox="0 0 753 3088.7" style="enable-background:new 0 0 753 3088.7;" xml:space="preserve">
<style type="text/css">
	.st0{fill:none;stroke:#FF00DE;stroke-width:23;stroke-miterlimit:10;}
</style>
<path class="st0" d="M143.4,0c-2,68,470,56.7,518,186.7s-258,89.4-352,86c-276-10-276.2,227.3-64,234c105.9,3.3,348,16,386,98
	s-164,131.7-346,154c-228,28-362,207.7,203.9,226.8c214.1,7.2,210.8,215,42.1,212.8c-567.9-7.5-465.9,258.5-288.3,267.5
	c201.3,10.3,346.7,17.7,386.5,169.3c32,122-483.1,8.9-528.1,117.6c-68,164,257.5,158.4,426,250c368,200-276.8,193.8-388.8,311.8
	s101,292.2,300.8,332.2c250,50,336,256,106,328s-304.1,44.1-292,128"/>
</svg>
