<svg id="Inhalt" xmlns="http://www.w3.org/2000/svg" viewBox="0 0 752.96 3088.66"><defs><style>.cls-1{fill:none;stroke:#ff00de;stroke-miterlimit:10;stroke-width:23px;}</style></defs><title>line_c</title><path class="cls-1" d="M143.39,0c-2,68,470,56.66,518,186.66s-258,89.4-352,86c-276-10-276.23,227.32-64,234,105.88,3.33,348,16,386,98s-164,131.65-346,154c-228,28-362,207.74,203.87,226.79,214.13,7.21,210.83,215,42.07,212.75-567.94-7.54-465.94,258.46-288.3,267.53C444.33,1476,589.76,1483.4,629.53,1635c32,122-483.08,8.94-528.14,117.61-68,164,257.51,158.43,426,250,368,200-276.8,193.82-388.8,311.82s101,292.23,300.8,332.18c250,50,336,256,106,328s-304.11,44.07-292,128"/></svg>